<svg width="160" height="63" viewBox="0 0 160 63" fill="none" xmlns="http://www.w3.org/2000/svg">
<g filter="url(#filter0_d_85_13)">
<rect x="4" width="152" height="55" rx="8" fill="#F5F5F5"/>
</g>
<rect x="4" width="152" height="20" rx="2" fill="#09B9F0"/>
<path d="M24.8408 11.835H26.1533C26.085 12.4639 25.9049 13.0267 25.6133 13.5234C25.3216 14.0202 24.9092 14.4144 24.376 14.7061C23.8428 14.9932 23.1774 15.1367 22.3799 15.1367C21.7965 15.1367 21.2656 15.0273 20.7871 14.8086C20.3132 14.5898 19.9053 14.2799 19.5635 13.8789C19.2217 13.4733 18.9574 12.988 18.7705 12.4229C18.5882 11.8532 18.4971 11.2197 18.4971 10.5225V9.53125C18.4971 8.83398 18.5882 8.2028 18.7705 7.6377C18.9574 7.06803 19.224 6.5804 19.5703 6.1748C19.9212 5.76921 20.3428 5.45703 20.835 5.23828C21.3271 5.01953 21.8809 4.91016 22.4961 4.91016C23.248 4.91016 23.8838 5.05143 24.4033 5.33398C24.9229 5.61654 25.3262 6.00846 25.6133 6.50977C25.9049 7.00651 26.085 7.58301 26.1533 8.23926H24.8408C24.777 7.77441 24.6585 7.37565 24.4854 7.04297C24.3122 6.70573 24.0661 6.44596 23.7471 6.26367C23.4281 6.08138 23.0111 5.99023 22.4961 5.99023C22.054 5.99023 21.6644 6.07454 21.3271 6.24316C20.9945 6.41178 20.7142 6.65104 20.4863 6.96094C20.263 7.27083 20.0944 7.64225 19.9805 8.0752C19.8665 8.50814 19.8096 8.98893 19.8096 9.51758V10.5225C19.8096 11.0101 19.8597 11.4681 19.96 11.8965C20.0648 12.3249 20.222 12.7008 20.4316 13.0244C20.6413 13.348 20.9079 13.6032 21.2314 13.79C21.555 13.9723 21.9378 14.0635 22.3799 14.0635C22.9404 14.0635 23.387 13.9746 23.7197 13.7969C24.0524 13.6191 24.3031 13.3639 24.4717 13.0312C24.6449 12.6986 24.7679 12.2998 24.8408 11.835ZM29.127 12.9971L32.5381 7.60352H33.8096V15H32.5381V9.60645L29.127 15H27.8691V7.60352H29.127V12.9971ZM40.8574 10.8096V11.835H36.9473V10.8096H40.8574ZM37.2139 7.60352V15H35.9492V7.60352H37.2139ZM41.8828 7.60352V15H40.6113V7.60352H41.8828ZM45.417 11.4727H46.7842L44.6445 15H43.2773L45.417 11.4727ZM46.4766 7.60352H49.5664V15H48.3018V8.62891H46.4766C46.1165 8.62891 45.8226 8.69043 45.5947 8.81348C45.3669 8.93197 45.2005 9.08691 45.0957 9.27832C44.9909 9.46973 44.9385 9.66797 44.9385 9.87305C44.9385 10.0736 44.9863 10.2673 45.082 10.4541C45.1777 10.6364 45.3281 10.7868 45.5332 10.9053C45.7383 11.0238 46.0026 11.083 46.3262 11.083H48.6436V12.1221H46.3262C45.9023 12.1221 45.5264 12.0651 45.1982 11.9512C44.8701 11.8372 44.5921 11.68 44.3643 11.4795C44.1364 11.2744 43.9632 11.0352 43.8447 10.7617C43.7262 10.4837 43.667 10.1829 43.667 9.85938C43.667 9.53581 43.7285 9.2373 43.8516 8.96387C43.9792 8.69043 44.1615 8.45117 44.3984 8.24609C44.64 8.04102 44.9339 7.88379 45.2803 7.77441C45.6312 7.66048 46.0299 7.60352 46.4766 7.60352ZM53.1006 11.4727H54.4678L52.3281 15H50.9609L53.1006 11.4727ZM54.1602 7.60352H57.25V15H55.9854V8.62891H54.1602C53.8001 8.62891 53.5062 8.69043 53.2783 8.81348C53.0505 8.93197 52.8841 9.08691 52.7793 9.27832C52.6745 9.46973 52.6221 9.66797 52.6221 9.87305C52.6221 10.0736 52.6699 10.2673 52.7656 10.4541C52.8613 10.6364 53.0117 10.7868 53.2168 10.9053C53.4219 11.0238 53.6862 11.083 54.0098 11.083H56.3271V12.1221H54.0098C53.5859 12.1221 53.21 12.0651 52.8818 11.9512C52.5537 11.8372 52.2757 11.68 52.0479 11.4795C51.82 11.2744 51.6468 11.0352 51.5283 10.7617C51.4098 10.4837 51.3506 10.1829 51.3506 9.85938C51.3506 9.53581 51.4121 9.2373 51.5352 8.96387C51.6628 8.69043 51.8451 8.45117 52.082 8.24609C52.3236 8.04102 52.6175 7.88379 52.9639 7.77441C53.3148 7.66048 53.7135 7.60352 54.1602 7.60352Z" fill="white"/>
<rect x="15" y="40" width="51" height="5" rx="2" fill="#C4C4C4"/>
<rect x="86" y="36" width="51" height="5" rx="2" fill="#C4C4C4"/>
<rect x="31" y="26" width="63" height="5" rx="2" fill="#C4C4C4"/>
<defs>
<filter id="filter0_d_85_13" x="0" y="0" width="160" height="63" filterUnits="userSpaceOnUse" color-interpolation-filters="sRGB">
<feFlood flood-opacity="0" result="BackgroundImageFix"/>
<feColorMatrix in="SourceAlpha" type="matrix" values="0 0 0 0 0 0 0 0 0 0 0 0 0 0 0 0 0 0 127 0" result="hardAlpha"/>
<feOffset dy="4"/>
<feGaussianBlur stdDeviation="2"/>
<feComposite in2="hardAlpha" operator="out"/>
<feColorMatrix type="matrix" values="0 0 0 0 0 0 0 0 0 0 0 0 0 0 0 0 0 0 0.25 0"/>
<feBlend mode="normal" in2="BackgroundImageFix" result="effect1_dropShadow_85_13"/>
<feBlend mode="normal" in="SourceGraphic" in2="effect1_dropShadow_85_13" result="shape"/>
</filter>
</defs>
</svg>
