<svg width="160" height="63" viewBox="0 0 160 63" fill="none" xmlns="http://www.w3.org/2000/svg">
<g filter="url(#filter0_d_85_21)">
<rect x="4" width="152" height="55" rx="8" fill="#F5F5F5"/>
</g>
<rect x="4" width="152" height="20" rx="2" fill="#FFA012"/>
<path d="M26.0557 8.70898V9.33789C26.0557 10.0853 25.9622 10.7552 25.7754 11.3477C25.5885 11.9401 25.3197 12.4437 24.9688 12.8584C24.6178 13.2731 24.1963 13.5898 23.7041 13.8086C23.2165 14.0273 22.6696 14.1367 22.0635 14.1367C21.4756 14.1367 20.9355 14.0273 20.4434 13.8086C19.9557 13.5898 19.5319 13.2731 19.1719 12.8584C18.8164 12.4437 18.5407 11.9401 18.3447 11.3477C18.1488 10.7552 18.0508 10.0853 18.0508 9.33789V8.70898C18.0508 7.96159 18.1465 7.29395 18.3379 6.70605C18.5339 6.11361 18.8096 5.61003 19.165 5.19531C19.5205 4.77604 19.9421 4.45703 20.4297 4.23828C20.9219 4.01953 21.4619 3.91016 22.0498 3.91016C22.6559 3.91016 23.2028 4.01953 23.6904 4.23828C24.1826 4.45703 24.6042 4.77604 24.9551 5.19531C25.3105 5.61003 25.5817 6.11361 25.7686 6.70605C25.96 7.29395 26.0557 7.96159 26.0557 8.70898ZM24.75 9.33789V8.69531C24.75 8.10286 24.6885 7.57878 24.5654 7.12305C24.4469 6.66732 24.2715 6.28451 24.0391 5.97461C23.8066 5.66471 23.5218 5.43001 23.1846 5.27051C22.8519 5.111 22.4736 5.03125 22.0498 5.03125C21.6396 5.03125 21.2682 5.111 20.9355 5.27051C20.6074 5.43001 20.3249 5.66471 20.0879 5.97461C19.8555 6.28451 19.6755 6.66732 19.5479 7.12305C19.4202 7.57878 19.3564 8.10286 19.3564 8.69531V9.33789C19.3564 9.9349 19.4202 10.4635 19.5479 10.9238C19.6755 11.3796 19.8577 11.7646 20.0947 12.0791C20.3363 12.389 20.6211 12.6237 20.9492 12.7832C21.2819 12.9427 21.6533 13.0225 22.0635 13.0225C22.4919 13.0225 22.8724 12.9427 23.2051 12.7832C23.5378 12.6237 23.818 12.389 24.0459 12.0791C24.2783 11.7646 24.4538 11.3796 24.5723 10.9238C24.6908 10.4635 24.75 9.9349 24.75 9.33789ZM29.1045 8.02539V16.8438H27.833V6.60352H28.9951L29.1045 8.02539ZM34.0879 10.2402V10.3838C34.0879 10.9215 34.0241 11.4206 33.8965 11.8809C33.7689 12.3366 33.582 12.7331 33.3359 13.0703C33.0944 13.4076 32.7959 13.6696 32.4404 13.8564C32.085 14.0433 31.6771 14.1367 31.2168 14.1367C30.7474 14.1367 30.3327 14.0592 29.9727 13.9043C29.6126 13.7493 29.3073 13.5238 29.0566 13.2275C28.806 12.9313 28.6055 12.5758 28.4551 12.1611C28.3092 11.7464 28.209 11.2793 28.1543 10.7598V9.99414C28.209 9.44727 28.3115 8.95736 28.4619 8.52441C28.6123 8.09147 28.8105 7.72233 29.0566 7.41699C29.3073 7.1071 29.6104 6.8724 29.9658 6.71289C30.3213 6.54883 30.7314 6.4668 31.1963 6.4668C31.6611 6.4668 32.0736 6.55794 32.4336 6.74023C32.7936 6.91797 33.0967 7.17318 33.3428 7.50586C33.5889 7.83854 33.7734 8.2373 33.8965 8.70215C34.0241 9.16243 34.0879 9.67513 34.0879 10.2402ZM32.8164 10.3838V10.2402C32.8164 9.87109 32.7777 9.52474 32.7002 9.20117C32.6227 8.87305 32.502 8.58594 32.3379 8.33984C32.1784 8.08919 31.9733 7.89323 31.7227 7.75195C31.472 7.60612 31.1735 7.5332 30.8271 7.5332C30.5081 7.5332 30.2301 7.58789 29.9932 7.69727C29.7607 7.80664 29.5625 7.95475 29.3984 8.1416C29.2344 8.32389 29.0999 8.53353 28.9951 8.77051C28.8949 9.00293 28.8197 9.24447 28.7695 9.49512V11.2656C28.8607 11.5846 28.9883 11.8854 29.1523 12.168C29.3164 12.446 29.5352 12.6715 29.8086 12.8447C30.082 13.0133 30.4261 13.0977 30.8408 13.0977C31.1826 13.0977 31.4766 13.027 31.7227 12.8857C31.9733 12.7399 32.1784 12.5417 32.3379 12.291C32.502 12.0404 32.6227 11.7533 32.7002 11.4297C32.7777 11.1016 32.8164 10.7529 32.8164 10.3838ZM40.0625 12.7354V8.92773C40.0625 8.63607 40.0033 8.38314 39.8848 8.16895C39.7708 7.9502 39.5977 7.78158 39.3652 7.66309C39.1328 7.5446 38.8457 7.48535 38.5039 7.48535C38.1849 7.48535 37.9046 7.54004 37.6631 7.64941C37.4261 7.75879 37.2393 7.90234 37.1025 8.08008C36.9704 8.25781 36.9043 8.44922 36.9043 8.6543H35.6396C35.6396 8.38997 35.708 8.12793 35.8447 7.86816C35.9814 7.6084 36.1774 7.3737 36.4326 7.16406C36.6924 6.94987 37.0023 6.78125 37.3623 6.6582C37.7269 6.5306 38.1325 6.4668 38.5791 6.4668C39.1169 6.4668 39.5908 6.55794 40.001 6.74023C40.4157 6.92253 40.7393 7.19824 40.9717 7.56738C41.2087 7.93197 41.3271 8.38997 41.3271 8.94141V12.3867C41.3271 12.6328 41.3477 12.8949 41.3887 13.1729C41.4342 13.4508 41.5003 13.6901 41.5869 13.8906V14H40.2676C40.2038 13.8542 40.1536 13.6605 40.1172 13.4189C40.0807 13.1729 40.0625 12.945 40.0625 12.7354ZM40.2812 9.51562L40.2949 10.4043H39.0166C38.6566 10.4043 38.3353 10.4339 38.0527 10.4932C37.7702 10.5479 37.5332 10.6322 37.3418 10.7461C37.1504 10.86 37.0046 11.0036 36.9043 11.1768C36.804 11.3454 36.7539 11.5436 36.7539 11.7715C36.7539 12.0039 36.8063 12.2158 36.9111 12.4072C37.016 12.5986 37.1732 12.7513 37.3828 12.8652C37.597 12.9746 37.859 13.0293 38.1689 13.0293C38.5563 13.0293 38.8981 12.9473 39.1943 12.7832C39.4906 12.6191 39.7253 12.4186 39.8984 12.1816C40.0762 11.9447 40.1719 11.7145 40.1855 11.4912L40.7256 12.0996C40.6937 12.291 40.6071 12.5029 40.4658 12.7354C40.3245 12.9678 40.1354 13.1911 39.8984 13.4053C39.666 13.6149 39.388 13.7904 39.0645 13.9316C38.7454 14.0684 38.3854 14.1367 37.9844 14.1367C37.4831 14.1367 37.0433 14.0387 36.665 13.8428C36.2913 13.6468 35.9997 13.3848 35.79 13.0566C35.585 12.724 35.4824 12.3525 35.4824 11.9424C35.4824 11.5459 35.5599 11.1973 35.7148 10.8965C35.8698 10.5911 36.0931 10.3382 36.3848 10.1377C36.6764 9.93262 37.0273 9.77767 37.4375 9.67285C37.8477 9.56803 38.3057 9.51562 38.8115 9.51562H40.2812ZM48.334 9.80957V10.835H44.4238V9.80957H48.334ZM44.6904 6.60352V14H43.4258V6.60352H44.6904ZM49.3594 6.60352V14H48.0879V6.60352H49.3594ZM53.6387 10.7803L50.8359 6.60352H52.3604L54.2744 9.66602H55.751L55.5664 10.7803H53.6387ZM54.3291 10.6504L52.1826 14H50.583L53.5293 9.73438L54.3291 10.6504ZM56.4004 6.60352V14H55.1357V6.60352H56.4004ZM60.7139 6.60352L57.9111 10.7803H55.9834L55.7852 9.66602H57.2686L59.1826 6.60352H60.7139ZM59.3604 14L57.207 10.6504L58.0205 9.73438L60.96 14H59.3604ZM65.0615 14.1367C64.5465 14.1367 64.0794 14.0501 63.6602 13.877C63.2454 13.6992 62.8877 13.4508 62.5869 13.1318C62.2907 12.8128 62.0628 12.4346 61.9033 11.9971C61.7438 11.5596 61.6641 11.0811 61.6641 10.5615V10.2744C61.6641 9.67285 61.7529 9.13737 61.9307 8.66797C62.1084 8.19401 62.3499 7.79297 62.6553 7.46484C62.9606 7.13672 63.307 6.88835 63.6943 6.71973C64.0817 6.55111 64.4827 6.4668 64.8975 6.4668C65.4261 6.4668 65.8818 6.55794 66.2646 6.74023C66.652 6.92253 66.9688 7.17773 67.2148 7.50586C67.4609 7.82943 67.6432 8.21224 67.7617 8.6543C67.8802 9.0918 67.9395 9.57031 67.9395 10.0898V10.6572H62.416V9.625H66.6748V9.5293C66.6566 9.20117 66.5882 8.88216 66.4697 8.57227C66.3558 8.26237 66.1735 8.00716 65.9229 7.80664C65.6722 7.60612 65.3304 7.50586 64.8975 7.50586C64.6104 7.50586 64.346 7.56738 64.1045 7.69043C63.863 7.80892 63.6556 7.98665 63.4824 8.22363C63.3092 8.46061 63.1748 8.75 63.0791 9.0918C62.9834 9.43359 62.9355 9.8278 62.9355 10.2744V10.5615C62.9355 10.9124 62.9834 11.2428 63.0791 11.5527C63.1794 11.8581 63.3229 12.127 63.5098 12.3594C63.7012 12.5918 63.9313 12.7741 64.2002 12.9062C64.4736 13.0384 64.7835 13.1045 65.1299 13.1045C65.5765 13.1045 65.9548 13.0133 66.2646 12.8311C66.5745 12.6488 66.8457 12.4049 67.0781 12.0996L67.8438 12.708C67.6842 12.9495 67.4814 13.1797 67.2354 13.3984C66.9893 13.6172 66.6862 13.7949 66.3262 13.9316C65.9707 14.0684 65.5492 14.1367 65.0615 14.1367ZM72.8887 10.7461H70.4619L70.4482 9.73438H72.4307C72.8226 9.73438 73.1484 9.69564 73.4082 9.61816C73.6725 9.54069 73.8708 9.42448 74.0029 9.26953C74.1351 9.11458 74.2012 8.92318 74.2012 8.69531C74.2012 8.51758 74.1624 8.36263 74.085 8.23047C74.012 8.09375 73.9004 7.9821 73.75 7.89551C73.5996 7.80436 73.4128 7.73828 73.1895 7.69727C72.9707 7.65169 72.7132 7.62891 72.417 7.62891H70.7969V14H69.5322V6.60352H72.417C72.8864 6.60352 73.3079 6.64453 73.6816 6.72656C74.0599 6.80859 74.3812 6.93392 74.6455 7.10254C74.9144 7.2666 75.1195 7.47624 75.2607 7.73145C75.402 7.98665 75.4727 8.28743 75.4727 8.63379C75.4727 8.8571 75.4271 9.06901 75.3359 9.26953C75.2448 9.47005 75.1104 9.64779 74.9326 9.80273C74.7549 9.95768 74.5361 10.0853 74.2764 10.1855C74.0166 10.2812 73.7181 10.3428 73.3809 10.3701L72.8887 10.7461ZM72.8887 14H70.0039L70.6328 12.9746H72.8887C73.2396 12.9746 73.5312 12.9313 73.7637 12.8447C73.9961 12.7536 74.1693 12.626 74.2832 12.4619C74.4017 12.2933 74.4609 12.0928 74.4609 11.8604C74.4609 11.6279 74.4017 11.4297 74.2832 11.2656C74.1693 11.097 73.9961 10.9694 73.7637 10.8828C73.5312 10.7917 73.2396 10.7461 72.8887 10.7461H70.9678L70.9814 9.73438H73.3809L73.8389 10.1172C74.2445 10.1491 74.5885 10.2493 74.8711 10.418C75.1536 10.5866 75.3678 10.8008 75.5137 11.0605C75.6595 11.3158 75.7324 11.5938 75.7324 11.8945C75.7324 12.2409 75.6663 12.5462 75.5342 12.8105C75.4066 13.0749 75.2197 13.2959 74.9736 13.4736C74.7275 13.6468 74.429 13.779 74.0781 13.8701C73.7272 13.9567 73.3307 14 72.8887 14ZM81.7891 12.7354V8.92773C81.7891 8.63607 81.7298 8.38314 81.6113 8.16895C81.4974 7.9502 81.3242 7.78158 81.0918 7.66309C80.8594 7.5446 80.5723 7.48535 80.2305 7.48535C79.9115 7.48535 79.6312 7.54004 79.3896 7.64941C79.1527 7.75879 78.9658 7.90234 78.8291 8.08008C78.6969 8.25781 78.6309 8.44922 78.6309 8.6543H77.3662C77.3662 8.38997 77.4346 8.12793 77.5713 7.86816C77.708 7.6084 77.904 7.3737 78.1592 7.16406C78.4189 6.94987 78.7288 6.78125 79.0889 6.6582C79.4535 6.5306 79.859 6.4668 80.3057 6.4668C80.8434 6.4668 81.3174 6.55794 81.7275 6.74023C82.1423 6.92253 82.4658 7.19824 82.6982 7.56738C82.9352 7.93197 83.0537 8.38997 83.0537 8.94141V12.3867C83.0537 12.6328 83.0742 12.8949 83.1152 13.1729C83.1608 13.4508 83.2269 13.6901 83.3135 13.8906V14H81.9941C81.9303 13.8542 81.8802 13.6605 81.8438 13.4189C81.8073 13.1729 81.7891 12.945 81.7891 12.7354ZM82.0078 9.51562L82.0215 10.4043H80.7432C80.3831 10.4043 80.0618 10.4339 79.7793 10.4932C79.4967 10.5479 79.2598 10.6322 79.0684 10.7461C78.877 10.86 78.7311 11.0036 78.6309 11.1768C78.5306 11.3454 78.4805 11.5436 78.4805 11.7715C78.4805 12.0039 78.5329 12.2158 78.6377 12.4072C78.7425 12.5986 78.8997 12.7513 79.1094 12.8652C79.3236 12.9746 79.5856 13.0293 79.8955 13.0293C80.2829 13.0293 80.6247 12.9473 80.9209 12.7832C81.2171 12.6191 81.4518 12.4186 81.625 12.1816C81.8027 11.9447 81.8984 11.7145 81.9121 11.4912L82.4521 12.0996C82.4202 12.291 82.3337 12.5029 82.1924 12.7354C82.0511 12.9678 81.862 13.1911 81.625 13.4053C81.3926 13.6149 81.1146 13.7904 80.791 13.9316C80.472 14.0684 80.112 14.1367 79.7109 14.1367C79.2096 14.1367 78.7699 14.0387 78.3916 13.8428C78.0179 13.6468 77.7262 13.3848 77.5166 13.0566C77.3115 12.724 77.209 12.3525 77.209 11.9424C77.209 11.5459 77.2865 11.1973 77.4414 10.8965C77.5964 10.5911 77.8197 10.3382 78.1113 10.1377C78.403 9.93262 78.7539 9.77767 79.1641 9.67285C79.5742 9.56803 80.0322 9.51562 80.5381 9.51562H82.0078ZM86.54 10.4727H87.9072L85.7676 14H84.4004L86.54 10.4727ZM87.5996 6.60352H90.6895V14H89.4248V7.62891H87.5996C87.2396 7.62891 86.9456 7.69043 86.7178 7.81348C86.4899 7.93197 86.3236 8.08691 86.2188 8.27832C86.1139 8.46973 86.0615 8.66797 86.0615 8.87305C86.0615 9.07357 86.1094 9.26725 86.2051 9.4541C86.3008 9.63639 86.4512 9.78678 86.6562 9.90527C86.8613 10.0238 87.1257 10.083 87.4492 10.083H89.7666V11.1221H87.4492C87.0254 11.1221 86.6494 11.0651 86.3213 10.9512C85.9932 10.8372 85.7152 10.68 85.4873 10.4795C85.2594 10.2744 85.0863 10.0352 84.9678 9.76172C84.8493 9.48372 84.79 9.18294 84.79 8.85938C84.79 8.53581 84.8516 8.2373 84.9746 7.96387C85.1022 7.69043 85.2845 7.45117 85.5215 7.24609C85.763 7.04102 86.057 6.88379 86.4033 6.77441C86.7542 6.66048 87.153 6.60352 87.5996 6.60352Z" fill="white"/>
<rect x="15" y="40" width="51" height="5" rx="2" fill="#C4C4C4"/>
<rect x="86" y="36" width="51" height="5" rx="2" fill="#C4C4C4"/>
<rect x="31" y="26" width="63" height="5" rx="2" fill="#C4C4C4"/>
<defs>
<filter id="filter0_d_85_21" x="0" y="0" width="160" height="63" filterUnits="userSpaceOnUse" color-interpolation-filters="sRGB">
<feFlood flood-opacity="0" result="BackgroundImageFix"/>
<feColorMatrix in="SourceAlpha" type="matrix" values="0 0 0 0 0 0 0 0 0 0 0 0 0 0 0 0 0 0 127 0" result="hardAlpha"/>
<feOffset dy="4"/>
<feGaussianBlur stdDeviation="2"/>
<feComposite in2="hardAlpha" operator="out"/>
<feColorMatrix type="matrix" values="0 0 0 0 0 0 0 0 0 0 0 0 0 0 0 0 0 0 0.25 0"/>
<feBlend mode="normal" in2="BackgroundImageFix" result="effect1_dropShadow_85_21"/>
<feBlend mode="normal" in="SourceGraphic" in2="effect1_dropShadow_85_21" result="shape"/>
</filter>
</defs>
</svg>
