<svg width="160" height="63" viewBox="0 0 160 63" fill="none" xmlns="http://www.w3.org/2000/svg">
<g filter="url(#filter0_d_85_21)">
<rect x="4" width="152" height="55" rx="8" fill="#F5F5F5"/>
</g>
<rect x="4" width="152" height="20" rx="2" fill="#A4A4A4"/>
<path d="M22.626 5.04688V15H21.3135V6.12695H16.4053V15H15.0859V5.04688H22.626ZM24.4922 11.3838V11.2266C24.4922 10.6934 24.5697 10.1989 24.7246 9.74316C24.8796 9.28288 25.1029 8.88411 25.3945 8.54688C25.6862 8.20508 26.0394 7.94076 26.4541 7.75391C26.8688 7.5625 27.3337 7.4668 27.8486 7.4668C28.3682 7.4668 28.8353 7.5625 29.25 7.75391C29.6693 7.94076 30.0247 8.20508 30.3164 8.54688C30.6126 8.88411 30.8382 9.28288 30.9932 9.74316C31.1481 10.1989 31.2256 10.6934 31.2256 11.2266V11.3838C31.2256 11.917 31.1481 12.4115 30.9932 12.8672C30.8382 13.3229 30.6126 13.7217 30.3164 14.0635C30.0247 14.4007 29.6715 14.665 29.2568 14.8564C28.8467 15.0433 28.3818 15.1367 27.8623 15.1367C27.3428 15.1367 26.8757 15.0433 26.4609 14.8564C26.0462 14.665 25.6908 14.4007 25.3945 14.0635C25.1029 13.7217 24.8796 13.3229 24.7246 12.8672C24.5697 12.4115 24.4922 11.917 24.4922 11.3838ZM25.7568 11.2266V11.3838C25.7568 11.7529 25.8001 12.1016 25.8867 12.4297C25.9733 12.7533 26.1032 13.0404 26.2764 13.291C26.4541 13.5417 26.6751 13.7399 26.9395 13.8857C27.2038 14.027 27.5114 14.0977 27.8623 14.0977C28.2087 14.0977 28.5117 14.027 28.7715 13.8857C29.0358 13.7399 29.2546 13.5417 29.4277 13.291C29.6009 13.0404 29.7308 12.7533 29.8174 12.4297C29.9085 12.1016 29.9541 11.7529 29.9541 11.3838V11.2266C29.9541 10.862 29.9085 10.5179 29.8174 10.1943C29.7308 9.86621 29.5986 9.57682 29.4209 9.32617C29.2477 9.07096 29.029 8.87044 28.7646 8.72461C28.5049 8.57878 28.1995 8.50586 27.8486 8.50586C27.5023 8.50586 27.1969 8.57878 26.9326 8.72461C26.6729 8.87044 26.4541 9.07096 26.2764 9.32617C26.1032 9.57682 25.9733 9.86621 25.8867 10.1943C25.8001 10.5179 25.7568 10.862 25.7568 11.2266ZM38.3623 14.2344L40.4199 7.60352H41.7734L38.8066 16.1416C38.7383 16.3239 38.6471 16.5199 38.5332 16.7295C38.4238 16.9437 38.2826 17.1465 38.1094 17.3379C37.9362 17.5293 37.7266 17.6842 37.4805 17.8027C37.2389 17.9258 36.9495 17.9873 36.6123 17.9873C36.512 17.9873 36.3844 17.9736 36.2295 17.9463C36.0745 17.9189 35.9652 17.8962 35.9014 17.8779L35.8945 16.8525C35.931 16.8571 35.988 16.8617 36.0654 16.8662C36.1475 16.8753 36.2044 16.8799 36.2363 16.8799C36.5234 16.8799 36.7673 16.8411 36.9678 16.7637C37.1683 16.6908 37.3369 16.5654 37.4736 16.3877C37.6149 16.2145 37.7357 15.9753 37.8359 15.6699L38.3623 14.2344ZM36.8516 7.60352L38.7725 13.3457L39.1006 14.6787L38.1914 15.1436L35.4707 7.60352H36.8516ZM47.167 13.3184L49.6826 7.60352H50.8994L47.6045 15H46.7295L43.4482 7.60352H44.665L47.167 13.3184ZM44.2959 7.60352V15H43.0312V7.60352H44.2959ZM49.9971 15V7.60352H51.2686V15H49.9971ZM52.9707 11.3838V11.2266C52.9707 10.6934 53.0482 10.1989 53.2031 9.74316C53.3581 9.28288 53.5814 8.88411 53.873 8.54688C54.1647 8.20508 54.5179 7.94076 54.9326 7.75391C55.3473 7.5625 55.8122 7.4668 56.3271 7.4668C56.8467 7.4668 57.3138 7.5625 57.7285 7.75391C58.1478 7.94076 58.5033 8.20508 58.7949 8.54688C59.0911 8.88411 59.3167 9.28288 59.4717 9.74316C59.6266 10.1989 59.7041 10.6934 59.7041 11.2266V11.3838C59.7041 11.917 59.6266 12.4115 59.4717 12.8672C59.3167 13.3229 59.0911 13.7217 58.7949 14.0635C58.5033 14.4007 58.1501 14.665 57.7354 14.8564C57.3252 15.0433 56.8604 15.1367 56.3408 15.1367C55.8213 15.1367 55.3542 15.0433 54.9395 14.8564C54.5247 14.665 54.1693 14.4007 53.873 14.0635C53.5814 13.7217 53.3581 13.3229 53.2031 12.8672C53.0482 12.4115 52.9707 11.917 52.9707 11.3838ZM54.2354 11.2266V11.3838C54.2354 11.7529 54.2786 12.1016 54.3652 12.4297C54.4518 12.7533 54.5817 13.0404 54.7549 13.291C54.9326 13.5417 55.1536 13.7399 55.418 13.8857C55.6823 14.027 55.9899 14.0977 56.3408 14.0977C56.6872 14.0977 56.9902 14.027 57.25 13.8857C57.5143 13.7399 57.7331 13.5417 57.9062 13.291C58.0794 13.0404 58.2093 12.7533 58.2959 12.4297C58.387 12.1016 58.4326 11.7529 58.4326 11.3838V11.2266C58.4326 10.862 58.387 10.5179 58.2959 10.1943C58.2093 9.86621 58.0771 9.57682 57.8994 9.32617C57.7262 9.07096 57.5075 8.87044 57.2432 8.72461C56.9834 8.57878 56.6781 8.50586 56.3271 8.50586C55.9808 8.50586 55.6755 8.57878 55.4111 8.72461C55.1514 8.87044 54.9326 9.07096 54.7549 9.32617C54.5817 9.57682 54.4518 9.86621 54.3652 10.1943C54.2786 10.5179 54.2354 10.862 54.2354 11.2266ZM66.123 7.60352V8.64941H62.5479V7.60352H66.123ZM67.2373 7.60352V15H65.9727V7.60352H67.2373ZM62.2402 7.60352H63.5117L63.3203 11.1719C63.2884 11.7233 63.236 12.2109 63.1631 12.6348C63.0947 13.054 62.999 13.4141 62.876 13.7148C62.7575 14.0156 62.6071 14.2617 62.4248 14.4531C62.2471 14.64 62.0329 14.779 61.7822 14.8701C61.5316 14.9567 61.2422 15 60.9141 15H60.5176V13.8857L60.791 13.8652C60.987 13.8516 61.1533 13.806 61.29 13.7285C61.4313 13.651 61.5498 13.5371 61.6455 13.3867C61.7412 13.2318 61.8187 13.0335 61.8779 12.792C61.9417 12.5505 61.9896 12.2633 62.0215 11.9307C62.0579 11.598 62.0853 11.2106 62.1035 10.7686L62.2402 7.60352ZM74.8525 7.60352V15H73.5879V7.60352H74.8525ZM74.4219 11.001V12.04C74.1667 12.1357 73.9069 12.2223 73.6426 12.2998C73.3828 12.3727 73.1071 12.432 72.8154 12.4775C72.5283 12.5186 72.2161 12.5391 71.8789 12.5391C71.2956 12.5391 70.7897 12.4388 70.3613 12.2383C69.9329 12.0332 69.6025 11.7256 69.3701 11.3154C69.1377 10.9007 69.0215 10.3789 69.0215 9.75V7.58984H70.2861V9.75C70.2861 10.1602 70.3477 10.4928 70.4707 10.748C70.5938 11.0033 70.7738 11.1924 71.0107 11.3154C71.2477 11.4339 71.5371 11.4932 71.8789 11.4932C72.207 11.4932 72.5146 11.4727 72.8018 11.4316C73.0934 11.3861 73.3714 11.3268 73.6357 11.2539C73.9046 11.181 74.1667 11.0967 74.4219 11.001ZM81.251 13.7354V9.92773C81.251 9.63607 81.1917 9.38314 81.0732 9.16895C80.9593 8.9502 80.7861 8.78158 80.5537 8.66309C80.3213 8.5446 80.0342 8.48535 79.6924 8.48535C79.3734 8.48535 79.0931 8.54004 78.8516 8.64941C78.6146 8.75879 78.4277 8.90234 78.291 9.08008C78.1589 9.25781 78.0928 9.44922 78.0928 9.6543H76.8281C76.8281 9.38997 76.8965 9.12793 77.0332 8.86816C77.1699 8.6084 77.3659 8.3737 77.6211 8.16406C77.8809 7.94987 78.1908 7.78125 78.5508 7.6582C78.9154 7.5306 79.321 7.4668 79.7676 7.4668C80.3053 7.4668 80.7793 7.55794 81.1895 7.74023C81.6042 7.92253 81.9277 8.19824 82.1602 8.56738C82.3971 8.93197 82.5156 9.38997 82.5156 9.94141V13.3867C82.5156 13.6328 82.5361 13.8949 82.5771 14.1729C82.6227 14.4508 82.6888 14.6901 82.7754 14.8906V15H81.4561C81.3923 14.8542 81.3421 14.6605 81.3057 14.4189C81.2692 14.1729 81.251 13.945 81.251 13.7354ZM81.4697 10.5156L81.4834 11.4043H80.2051C79.8451 11.4043 79.5238 11.4339 79.2412 11.4932C78.9587 11.5479 78.7217 11.6322 78.5303 11.7461C78.3389 11.86 78.193 12.0036 78.0928 12.1768C77.9925 12.3454 77.9424 12.5436 77.9424 12.7715C77.9424 13.0039 77.9948 13.2158 78.0996 13.4072C78.2044 13.5986 78.3617 13.7513 78.5713 13.8652C78.7855 13.9746 79.0475 14.0293 79.3574 14.0293C79.7448 14.0293 80.0866 13.9473 80.3828 13.7832C80.679 13.6191 80.9137 13.4186 81.0869 13.1816C81.2646 12.9447 81.3604 12.7145 81.374 12.4912L81.9141 13.0996C81.8822 13.291 81.7956 13.5029 81.6543 13.7354C81.513 13.9678 81.3239 14.1911 81.0869 14.4053C80.8545 14.6149 80.5765 14.7904 80.2529 14.9316C79.9339 15.0684 79.5739 15.1367 79.1729 15.1367C78.6715 15.1367 78.2318 15.0387 77.8535 14.8428C77.4798 14.6468 77.1882 14.3848 76.9785 14.0566C76.7734 13.724 76.6709 13.3525 76.6709 12.9424C76.6709 12.5459 76.7484 12.1973 76.9033 11.8965C77.0583 11.5911 77.2816 11.3382 77.5732 11.1377C77.8649 10.9326 78.2158 10.7777 78.626 10.6729C79.0361 10.568 79.4941 10.5156 80 10.5156H81.4697ZM89.5225 10.8096V11.835H85.6123V10.8096H89.5225ZM85.8789 7.60352V15H84.6143V7.60352H85.8789ZM90.5479 7.60352V15H89.2764V7.60352H90.5479ZM93.9521 12.9971L97.3633 7.60352H98.6348V15H97.3633V9.60645L93.9521 15H92.6943V7.60352H93.9521V12.9971ZM104.876 10.7412V11.7734H100.945V10.7412H104.876ZM102.046 7.60352V15H100.781V7.60352H102.046ZM103.796 11.3838V11.2266C103.796 10.6934 103.873 10.1989 104.028 9.74316C104.183 9.28288 104.407 8.88411 104.698 8.54688C104.994 8.20508 105.348 7.94076 105.758 7.75391C106.173 7.5625 106.637 7.4668 107.152 7.4668C107.676 7.4668 108.146 7.5625 108.561 7.75391C108.975 7.94076 109.328 8.20508 109.62 8.54688C109.916 8.88411 110.142 9.28288 110.297 9.74316C110.452 10.1989 110.529 10.6934 110.529 11.2266V11.3838C110.529 11.917 110.452 12.4115 110.297 12.8672C110.142 13.3229 109.919 13.7217 109.627 14.0635C109.335 14.4007 108.982 14.665 108.567 14.8564C108.153 15.0433 107.686 15.1367 107.166 15.1367C106.646 15.1367 106.179 15.0433 105.765 14.8564C105.35 14.665 104.994 14.4007 104.698 14.0635C104.407 13.7217 104.183 13.3229 104.028 12.8672C103.873 12.4115 103.796 11.917 103.796 11.3838ZM105.067 11.2266V11.3838C105.067 11.7529 105.111 12.1016 105.197 12.4297C105.284 12.7533 105.414 13.0404 105.587 13.291C105.765 13.5417 105.983 13.7399 106.243 13.8857C106.507 14.027 106.815 14.0977 107.166 14.0977C107.517 14.0977 107.822 14.027 108.082 13.8857C108.346 13.7399 108.565 13.5417 108.738 13.291C108.911 13.0404 109.041 12.7533 109.128 12.4297C109.219 12.1016 109.265 11.7529 109.265 11.3838V11.2266C109.265 10.862 109.219 10.5179 109.128 10.1943C109.041 9.86621 108.909 9.57682 108.731 9.32617C108.558 9.07096 108.34 8.87044 108.075 8.72461C107.811 8.57878 107.503 8.50586 107.152 8.50586C106.806 8.50586 106.503 8.57878 106.243 8.72461C105.983 8.87044 105.765 9.07096 105.587 9.32617C105.414 9.57682 105.284 9.86621 105.197 10.1943C105.111 10.5179 105.067 10.862 105.067 11.2266Z" fill="white"/>
<rect x="15" y="40" width="51" height="5" rx="2" fill="#C4C4C4"/>
<rect x="86" y="36" width="51" height="5" rx="2" fill="#C4C4C4"/>
<rect x="31" y="26" width="63" height="5" rx="2" fill="#C4C4C4"/>
<defs>
<filter id="filter0_d_85_21" x="0" y="0" width="160" height="63" filterUnits="userSpaceOnUse" color-interpolation-filters="sRGB">
<feFlood flood-opacity="0" result="BackgroundImageFix"/>
<feColorMatrix in="SourceAlpha" type="matrix" values="0 0 0 0 0 0 0 0 0 0 0 0 0 0 0 0 0 0 127 0" result="hardAlpha"/>
<feOffset dy="4"/>
<feGaussianBlur stdDeviation="2"/>
<feComposite in2="hardAlpha" operator="out"/>
<feColorMatrix type="matrix" values="0 0 0 0 0 0 0 0 0 0 0 0 0 0 0 0 0 0 0.25 0"/>
<feBlend mode="normal" in2="BackgroundImageFix" result="effect1_dropShadow_85_21"/>
<feBlend mode="normal" in="SourceGraphic" in2="effect1_dropShadow_85_21" result="shape"/>
</filter>
</defs>
</svg>
