<svg width="160" height="63" viewBox="0 0 160 63" fill="none" xmlns="http://www.w3.org/2000/svg">
<g filter="url(#filter0_d_85_12)">
<rect x="4" width="152" height="55" rx="8" fill="#F5F5F5"/>
</g>
<rect x="4" width="152" height="20" rx="2" fill="black"/>
<path d="M18.4014 5.04688V15H17.1025V5.04688H18.4014ZM21.6006 5.04688V6.12695H13.9102V5.04688H21.6006ZM25.2715 15.1367C24.7565 15.1367 24.2894 15.0501 23.8701 14.877C23.4554 14.6992 23.0977 14.4508 22.7969 14.1318C22.5007 13.8128 22.2728 13.4346 22.1133 12.9971C21.9538 12.5596 21.874 12.0811 21.874 11.5615V11.2744C21.874 10.6729 21.9629 10.1374 22.1406 9.66797C22.3184 9.19401 22.5599 8.79297 22.8652 8.46484C23.1706 8.13672 23.5169 7.88835 23.9043 7.71973C24.2917 7.55111 24.6927 7.4668 25.1074 7.4668C25.6361 7.4668 26.0918 7.55794 26.4746 7.74023C26.862 7.92253 27.1787 8.17773 27.4248 8.50586C27.6709 8.82943 27.8532 9.21224 27.9717 9.6543C28.0902 10.0918 28.1494 10.5703 28.1494 11.0898V11.6572H22.626V10.625H26.8848V10.5293C26.8665 10.2012 26.7982 9.88216 26.6797 9.57227C26.5658 9.26237 26.3835 9.00716 26.1328 8.80664C25.8822 8.60612 25.5404 8.50586 25.1074 8.50586C24.8203 8.50586 24.556 8.56738 24.3145 8.69043C24.0729 8.80892 23.8656 8.98665 23.6924 9.22363C23.5192 9.46061 23.3848 9.75 23.2891 10.0918C23.1934 10.4336 23.1455 10.8278 23.1455 11.2744V11.5615C23.1455 11.9124 23.1934 12.2428 23.2891 12.5527C23.3893 12.8581 23.5329 13.127 23.7197 13.3594C23.9111 13.5918 24.1413 13.7741 24.4102 13.9062C24.6836 14.0384 24.9935 14.1045 25.3398 14.1045C25.7865 14.1045 26.1647 14.0133 26.4746 13.8311C26.7845 13.6488 27.0557 13.4049 27.2881 13.0996L28.0537 13.708C27.8942 13.9495 27.6914 14.1797 27.4453 14.3984C27.1992 14.6172 26.8962 14.7949 26.5361 14.9316C26.1807 15.0684 25.7591 15.1367 25.2715 15.1367ZM33.8779 13.3184L36.3936 7.60352H37.6104L34.3154 15H33.4404L30.1592 7.60352H31.376L33.8779 13.3184ZM31.0068 7.60352V15H29.7422V7.60352H31.0068ZM36.708 15V7.60352H37.9795V15H36.708ZM45.0342 10.8096V11.835H41.124V10.8096H45.0342ZM41.3906 7.60352V15H40.126V7.60352H41.3906ZM46.0596 7.60352V15H44.7881V7.60352H46.0596ZM52.458 13.7354V9.92773C52.458 9.63607 52.3988 9.38314 52.2803 9.16895C52.1663 8.9502 51.9932 8.78158 51.7607 8.66309C51.5283 8.5446 51.2412 8.48535 50.8994 8.48535C50.5804 8.48535 50.3001 8.54004 50.0586 8.64941C49.8216 8.75879 49.6348 8.90234 49.498 9.08008C49.3659 9.25781 49.2998 9.44922 49.2998 9.6543H48.0352C48.0352 9.38997 48.1035 9.12793 48.2402 8.86816C48.377 8.6084 48.5729 8.3737 48.8281 8.16406C49.0879 7.94987 49.3978 7.78125 49.7578 7.6582C50.1224 7.5306 50.528 7.4668 50.9746 7.4668C51.5124 7.4668 51.9863 7.55794 52.3965 7.74023C52.8112 7.92253 53.1348 8.19824 53.3672 8.56738C53.6042 8.93197 53.7227 9.38997 53.7227 9.94141V13.3867C53.7227 13.6328 53.7432 13.8949 53.7842 14.1729C53.8298 14.4508 53.8958 14.6901 53.9824 14.8906V15H52.6631C52.5993 14.8542 52.5492 14.6605 52.5127 14.4189C52.4762 14.1729 52.458 13.945 52.458 13.7354ZM52.6768 10.5156L52.6904 11.4043H51.4121C51.0521 11.4043 50.7308 11.4339 50.4482 11.4932C50.1657 11.5479 49.9287 11.6322 49.7373 11.7461C49.5459 11.86 49.4001 12.0036 49.2998 12.1768C49.1995 12.3454 49.1494 12.5436 49.1494 12.7715C49.1494 13.0039 49.2018 13.2158 49.3066 13.4072C49.4115 13.5986 49.5687 13.7513 49.7783 13.8652C49.9925 13.9746 50.2546 14.0293 50.5645 14.0293C50.9518 14.0293 51.2936 13.9473 51.5898 13.7832C51.8861 13.6191 52.1208 13.4186 52.2939 13.1816C52.4717 12.9447 52.5674 12.7145 52.5811 12.4912L53.1211 13.0996C53.0892 13.291 53.0026 13.5029 52.8613 13.7354C52.7201 13.9678 52.5309 14.1911 52.2939 14.4053C52.0615 14.6149 51.7835 14.7904 51.46 14.9316C51.141 15.0684 50.7809 15.1367 50.3799 15.1367C49.8786 15.1367 49.4388 15.0387 49.0605 14.8428C48.6868 14.6468 48.3952 14.3848 48.1855 14.0566C47.9805 13.724 47.8779 13.3525 47.8779 12.9424C47.8779 12.5459 47.9554 12.1973 48.1104 11.8965C48.2653 11.5911 48.4886 11.3382 48.7803 11.1377C49.0719 10.9326 49.4229 10.7777 49.833 10.6729C50.2432 10.568 50.7012 10.5156 51.207 10.5156H52.6768ZM57.209 11.4727H58.5762L56.4365 15H55.0693L57.209 11.4727ZM58.2686 7.60352H61.3584V15H60.0938V8.62891H58.2686C57.9085 8.62891 57.6146 8.69043 57.3867 8.81348C57.1589 8.93197 56.9925 9.08691 56.8877 9.27832C56.7829 9.46973 56.7305 9.66797 56.7305 9.87305C56.7305 10.0736 56.7783 10.2673 56.874 10.4541C56.9697 10.6364 57.1201 10.7868 57.3252 10.9053C57.5303 11.0238 57.7946 11.083 58.1182 11.083H60.4355V12.1221H58.1182C57.6943 12.1221 57.3184 12.0651 56.9902 11.9512C56.6621 11.8372 56.3841 11.68 56.1562 11.4795C55.9284 11.2744 55.7552 11.0352 55.6367 10.7617C55.5182 10.4837 55.459 10.1829 55.459 9.85938C55.459 9.53581 55.5205 9.2373 55.6436 8.96387C55.7712 8.69043 55.9535 8.45117 56.1904 8.24609C56.432 8.04102 56.7259 7.88379 57.0723 7.77441C57.4232 7.66048 57.8219 7.60352 58.2686 7.60352Z" fill="white"/>
<rect x="15" y="40" width="51" height="5" rx="2" fill="#C4C4C4"/>
<rect x="86" y="36" width="51" height="5" rx="2" fill="#C4C4C4"/>
<rect x="31" y="26" width="63" height="5" rx="2" fill="#C4C4C4"/>
<defs>
<filter id="filter0_d_85_12" x="0" y="0" width="160" height="63" filterUnits="userSpaceOnUse" color-interpolation-filters="sRGB">
<feFlood flood-opacity="0" result="BackgroundImageFix"/>
<feColorMatrix in="SourceAlpha" type="matrix" values="0 0 0 0 0 0 0 0 0 0 0 0 0 0 0 0 0 0 127 0" result="hardAlpha"/>
<feOffset dy="4"/>
<feGaussianBlur stdDeviation="2"/>
<feComposite in2="hardAlpha" operator="out"/>
<feColorMatrix type="matrix" values="0 0 0 0 0 0 0 0 0 0 0 0 0 0 0 0 0 0 0.25 0"/>
<feBlend mode="normal" in2="BackgroundImageFix" result="effect1_dropShadow_85_12"/>
<feBlend mode="normal" in="SourceGraphic" in2="effect1_dropShadow_85_12" result="shape"/>
</filter>
</defs>
</svg>
